<svg width="259" height="193" viewBox="0 0 259 193" fill="none" xmlns="http://www.w3.org/2000/svg">
<g clip-path="url(#clip0_8_13)">
<path fill-rule="evenodd" clip-rule="evenodd" d="M309.603 1.7323C300.852 4.9463 291.831 13.5623 287.34 22.9943C284.835 28.2573 284.244 28.2663 283.545 23.0523C280.945 3.67031 250.962 -2.4387 239.384 14.0553C232.079 24.4623 237.137 40.7723 252.405 56.0403C261.394 65.0303 261.734 66.1813 255.803 67.5593C253.572 68.0783 252.609 67.2843 247.803 60.9673C234.649 43.6753 221.74 32.8123 210.057 29.2033C183.057 20.8643 171.765 45.5603 196.8 58.1983C206.781 63.2363 247.309 71.9003 250.802 69.7423C251.248 69.4663 252.161 69.9003 252.831 70.7073C253.833 71.9143 253.018 73.3713 248.224 78.9463C245.02 82.6713 242.283 85.8963 242.14 86.1143C241.998 86.3323 237.71 83.7693 232.611 80.4183C206.616 63.3383 183.21 60.4823 172.597 73.0953C162.085 85.5873 173.483 96.2183 197.389 96.2183C206.748 96.2183 207.547 96.8033 202.057 99.6383C198.52 101.464 194.991 101.576 129.34 101.95C60.3399 102.344 60.3399 102.344 58.6949 99.3833C55.0849 92.8853 45.6819 94.9583 45.0399 102.395C44.3599 110.276 52.5169 113.501 57.8979 107.479C60.6429 104.407 60.6429 104.407 128.045 104.063C195.447 103.718 195.447 103.718 192.406 108.61C188.072 115.582 187.496 126.005 191.149 131.361C192.516 133.364 193.96 136.514 194.359 138.361C196.379 147.716 203.887 156.602 214.077 161.7C219.379 164.353 221.742 166.237 223.81 169.461C241.786 197.48 281.021 200.003 288.085 173.592C289.586 167.979 292.11 167.009 295.127 170.887C304.101 182.421 320.097 186.983 338.141 183.154C358.394 178.856 371.563 155.75 364.368 137.139C363.911 135.957 364.746 135.263 367.686 134.382C372.383 132.975 377.501 128.04 378.371 124.078C379.914 117.053 375.597 111.032 364.95 105.357C361.512 103.525 358.843 101.894 359.02 101.734C359.196 101.574 364.065 101.939 369.84 102.547C376.802 103.279 416.945 103.662 488.965 103.685C597.589 103.718 597.589 103.718 598.126 110.822C599.396 127.606 609.669 138.353 624.69 138.61C630.932 138.716 631.071 138.779 632.887 142.318C638.761 153.768 655.598 160.445 669.57 156.866C675.756 155.281 675.756 155.281 681.4 158.249C694.83 165.314 710.352 160.009 717.495 145.912C720.449 140.083 723.84 127.385 723.84 122.153C723.84 118.781 724.281 118.15 728.268 115.813C734.359 112.243 734.521 112.339 735.271 119.968C737.249 140.096 740.731 151.08 746.9 156.653C758.463 167.099 770.881 158.084 770.823 139.286C770.788 128.318 765.527 111.955 760.107 105.962C759.234 104.996 758.795 103.93 759.132 103.593C759.469 103.256 777.878 103.487 800.042 104.106C889.196 106.595 919.553 107.327 923.965 107.094C927.699 106.896 929.535 107.455 933.498 109.999C940.531 114.511 949.413 116.544 959.737 116.002C967.419 115.599 968.616 115.794 972.768 118.127C978.37 121.276 987.474 121.629 992.595 118.898C995.85 117.161 995.85 117.161 999.509 120.82C1008.73 130.043 1028.04 133.037 1039.46 127.015C1048.52 122.236 1054.84 112.882 1054.84 104.241C1054.84 102.306 1055.23 102.195 1060.09 102.764C1062.98 103.103 1065.97 103.581 1066.75 103.828C1067.52 104.074 1097 104.722 1132.25 105.268C1209.17 106.458 1216.92 106.964 1221.27 111.083C1227.6 117.089 1230.39 117.808 1244.84 117.171C1246.21 117.11 1249.47 117.378 1252.07 117.767C1255.61 118.296 1257.4 118.08 1259.19 116.91C1261.47 115.413 1261.72 115.498 1264.96 118.905C1278.38 133.021 1303.12 125.938 1304.65 107.54C1305.11 101.966 1305.11 101.966 1311.72 102.586C1315.36 102.927 1350.29 103.488 1389.34 103.831C1460.34 104.456 1460.34 104.456 1463.84 107.727C1473 116.291 1482.47 116.514 1490.24 108.35C1493.13 105.303 1493.13 105.303 1495.09 109.269C1498.96 117.076 1508.76 115.499 1510.39 106.807C1510.97 103.715 1510.97 103.715 1519.65 104.343C1524.43 104.689 1544.76 104.594 1564.84 104.132C1610.81 103.074 1674.85 102.979 1674.82 103.968C1674.81 104.381 1672.33 106.484 1669.32 108.643C1664.54 112.063 1662.63 114.218 1664.36 114.218C1664.77 114.218 1675.41 106.28 1679.11 103.218C1679.78 102.665 1665.7 91.2183 1664.35 91.2183C1662.63 91.2183 1664.56 93.3843 1669.32 96.7933C1672.33 98.9523 1674.81 100.943 1674.82 101.218C1674.83 101.493 1662.8 101.573 1648.09 101.397C1633.38 101.22 1600.19 101.557 1574.34 102.146C1520.25 103.378 1511.1 103.031 1509.83 99.6953C1507.56 93.7343 1501.59 91.8783 1497.02 95.7183C1493.1 99.0203 1491.82 98.8833 1487.23 94.6773C1472.81 81.4713 1454.23 84.6273 1458.18 99.6103C1458.95 102.502 1458.95 102.502 1386.65 101.825C1303.09 101.042 1305.37 101.176 1303.9 96.9613C1300.17 86.2683 1288.87 80.6703 1279.19 84.7183C1277.21 85.5433 1275.45 86.2183 1275.27 86.2183C1275.08 86.2183 1273.99 84.0863 1272.84 81.4803C1263.52 60.4153 1233.98 66.1133 1233.86 88.9983C1233.84 93.2783 1233.84 93.2783 1230.82 91.0483C1222.71 85.0533 1212.98 92.2633 1215.82 102.163C1217.06 106.482 1218.19 106.174 1204.84 105.169C1198.51 104.693 1170.61 104.03 1142.84 103.696C1094.51 103.114 1061.84 101.945 1057.15 100.631C1055.56 100.183 1054.48 98.4843 1053.19 94.3673C1047.91 77.5433 1029.13 69.9053 1012.15 77.6763C1006.94 80.0603 1006.94 80.0603 1005.76 76.3893C995.499 44.6483 957.73 50.2763 954.197 84.0723C953.561 90.1633 953.561 90.1633 948.146 85.2153C942.228 79.8063 936.645 77.6633 930.9 78.5963C920.021 80.3613 916.608 92.8473 924.456 102.173C927.528 105.824 930.584 105.706 870.84 104.241C756.766 101.444 757.157 101.471 752.133 96.1013C745.674 89.1953 737.505 84.1093 728.867 81.6153C720.373 79.1623 720.432 79.2333 718.963 69.5533C715.845 49.0093 705.81 36.4223 691.735 35.4043C684.479 34.8793 678.042 36.5653 672.801 40.3613C669.626 42.6613 667.808 43.2183 663.474 43.2183C653.338 43.2183 645.244 47.6083 639.569 56.1843C637.372 59.5043 635.726 60.9683 634.187 60.9683C630.039 60.9683 619.317 66.8823 613.201 72.5443C606.362 78.8763 600.561 88.7563 598.765 97.1333C597.65 102.33 597.65 102.33 485.995 101.899C382.556 101.5 358.188 100.9 355.985 98.6973C355.702 98.4133 357.098 96.5023 359.088 94.4503C372.108 81.0183 372.234 62.0253 359.377 50.4693C354.458 46.0463 354.043 45.3153 353.384 39.8853C349.961 11.7003 329.947 -5.7407 309.603 1.7323ZM332.164 5.03431C341.416 9.98731 351.84 29.4213 351.84 41.7183C351.84 45.0073 351.84 45.0073 347.854 43.8303C344.829 42.9373 343.183 41.5753 341.029 38.1863C329.659 20.2893 306.474 18.1133 290.192 33.4123C284.545 38.7183 284.545 38.7183 285.106 34.4033C286.271 25.4463 295.89 11.4403 304.556 6.08429C312.98 0.878295 323.642 0.472307 332.164 5.03431ZM269.349 8.08329C284.682 15.0493 286.002 32.6793 272.591 51.3903C264.652 62.4683 263.659 63.0573 258.694 59.6203C245.453 50.4543 235.45 30.2093 238.872 19.5033C242.408 8.4373 257.599 2.74529 269.349 8.08329ZM324.622 26.7643C331.672 29.6963 340.84 37.9553 340.84 41.3743C340.84 41.6753 337.19 42.2033 332.73 42.5473C322.708 43.3203 315.453 46.4313 310.828 51.9403C307.574 55.8163 307.371 55.9003 303.411 54.9903C301.172 54.4763 296.029 54.2703 291.983 54.5333C284.626 55.0103 284.626 55.0103 285.002 48.3503C285.919 32.1313 308.26 19.9593 324.622 26.7643ZM215.284 33.1473C224.03 37.4993 231.743 44.2093 241.162 55.6603C252.618 69.5883 252.403 68.5703 243.72 67.7523C217.407 65.2763 191.999 56.4473 186.842 47.9893C177.98 33.4543 196.488 23.7963 215.284 33.1473ZM286.122 65.1703C287.578 68.7183 288.608 71.7833 288.41 71.9813C287.561 72.8303 267.765 65.9433 268.107 64.9183C268.311 64.3063 271.147 62.4353 274.409 60.7623C277.671 59.0883 280.528 57.6053 280.757 57.4683C280.986 57.3313 280.868 56.9133 280.496 56.5403C280.123 56.1683 276.664 57.4813 272.81 59.4583C265.802 63.0543 265.802 63.0543 269.071 59.0563C274.819 52.0283 278.817 45.8423 280.603 41.2183C282.34 36.7183 282.34 36.7183 282.906 47.7183C283.355 56.4373 284.022 60.0563 286.122 65.1703ZM702.501 40.7933C710.045 46.8243 715.451 57.7093 717.397 70.7873C718.131 75.7183 718.131 75.7183 713.672 71.6203C711.22 69.3663 706.992 66.2323 704.277 64.6573C701.562 63.0813 699.199 61.4663 699.027 61.0673C696.143 54.3783 681.645 44.2183 674.985 44.2183C672.485 44.2183 672.214 42.9823 674.331 41.2263C680.453 36.1443 696.38 35.9003 702.501 40.7933ZM344.193 49.4763C345.157 54.7693 344.493 59.9423 342.501 62.6673C341.253 64.3743 340.994 64.3413 337.264 62.0043C331.847 58.6113 324.483 56.2413 317.174 55.5383C310.086 54.8563 309.858 53.8633 315.838 49.7193C321.468 45.8183 327.354 44.2863 335.833 44.5153C343.326 44.7183 343.326 44.7183 344.193 49.4763ZM666.84 44.7333C666.84 45.0163 665.494 47.6343 663.848 50.5503C660.856 55.8523 660.856 55.8523 652.213 57.0083C647.46 57.6443 642.506 58.8623 641.205 59.7143C637.518 62.1303 638.41 59.9133 643.323 54.4483C648.435 48.7633 652.989 46.2803 660.267 45.2123C663.057 44.8033 665.677 44.4113 666.09 44.3433C666.503 44.2743 666.84 44.4503 666.84 44.7333ZM349.562 46.2713C352.45 47.2783 352.562 47.5293 352.114 52.0213C351.615 57.0363 346.575 69.2183 345 69.2183C343.213 69.2183 342.856 66.0883 344.318 63.2603C346.467 59.1053 347.178 53.1013 346.019 48.9033C344.906 44.8743 345.113 44.7203 349.562 46.2713ZM683.482 49.2723C688.876 51.8763 697.722 59.6703 696.58 60.8113C696.351 61.0403 694.717 60.7233 692.949 60.1063C691.177 59.4893 686.951 59.2093 683.537 59.4843C679.858 59.7813 675.512 59.4503 672.84 58.6723C670.365 57.9503 667.093 57.0923 665.568 56.7643C662.44 56.0923 662.732 54.8773 667.584 48.3793C670.593 44.3503 673.644 44.5213 683.482 49.2723ZM360.376 53.8083C370.339 64.0603 369.278 81.8863 358.07 92.5243C355.114 95.3303 355.114 95.3303 354.439 91.0243C354.068 88.6563 352.173 83.3103 350.228 79.1453C346.691 71.5723 346.691 71.5723 349.807 65.4393C351.521 62.0653 353.193 57.0363 353.521 54.2623C354.254 48.0753 354.77 48.0413 360.376 53.8083ZM304.12 56.8313C304.457 57.1683 302.572 59.1533 299.93 61.2413C297.288 63.3293 294.214 66.1993 293.098 67.6183C290.775 70.5703 289.904 70.0093 287.361 63.9233C285.287 58.9593 285.446 57.4333 288.09 56.9243C291.7 56.2283 303.449 56.1613 304.12 56.8313ZM329.05 60.1953C338.309 63.6603 339.926 65.4243 336.849 68.7043C333.017 72.7893 318.103 79.8663 316.018 78.5883C313.859 77.2653 309.921 65.8753 309.875 60.8233C309.84 56.9283 309.84 56.9283 316.591 57.4943C320.304 57.8053 325.911 59.0213 329.05 60.1953ZM990.893 59.2453C995.252 61.4693 1000.02 67.3243 1002.95 74.0513C1005.56 80.0433 1005.55 80.0703 998.978 86.8323C994.342 91.6003 992.834 93.9623 991.766 98.1303C990.277 103.939 989.074 104.83 974.838 110.663C968.34 113.326 968.34 113.326 964.448 109.022C953.212 96.5983 953.099 77.6743 964.182 64.5723C970.223 57.4303 982.526 54.9773 990.893 59.2453ZM307.864 61.9683C307.877 64.0313 309 68.4183 310.359 71.7183C314.019 80.6023 314.125 80.5423 301.34 76.7973C290.765 73.6993 290.576 72.4693 299.433 64.3543C307.279 57.1653 307.832 57.0083 307.864 61.9683ZM659.84 62.9963C659.84 67.5263 659.464 68.1873 652.59 75.7593C648.603 80.1503 643.542 85.9443 641.345 88.6333C637.349 93.5233 637.349 93.5233 636.172 89.6203C634.643 84.5573 634.531 72.9803 635.964 68.1983C637.632 62.6303 645.856 58.5933 656.09 58.3183C659.84 58.2183 659.84 58.2183 659.84 62.9963ZM672.34 60.2433C674.159 60.9423 674.068 61.1133 671.34 62.1223C669.69 62.7323 667.146 63.9043 665.686 64.7253C661.748 66.9403 661.249 66.6193 661.675 62.1493C662.063 58.0803 662.063 58.0803 666.202 58.7773C668.478 59.1603 671.24 59.8193 672.34 60.2433ZM693.978 62.2403C699.523 63.7803 700.397 69.3333 696.433 77.8453C692.604 86.0683 691.031 85.2943 687.954 73.6733C687.364 71.4483 685.263 67.7353 683.283 65.4233C679.684 61.2183 679.684 61.2183 685.012 61.2243C687.942 61.2273 691.977 61.6843 693.978 62.2403ZM631.778 66.9683C626.753 72.6083 620.499 85.4393 618.871 93.4513C617.466 100.362 618.184 99.8763 608.08 100.757C599.838 101.476 599.838 101.476 600.457 98.0973C603.064 83.8633 616.315 68.7443 630.684 63.6123C636.257 61.6213 636.333 61.8553 631.778 66.9683ZM681.019 65.9683C687.927 73.1943 688.756 79.3533 683.947 87.7183C679.118 96.1173 677.416 97.1443 673.904 93.7793C670.497 90.5153 665.337 81.1873 663.426 74.8373C662.112 70.4723 662.146 70.2993 664.837 67.7213C667.026 65.6233 673.511 62.6983 676.887 62.2853C677.188 62.2483 679.047 63.9063 681.019 65.9683ZM706.548 68.1223C711.705 71.8573 717.975 78.3123 717.585 79.4833C717.418 79.9833 715.009 81.1923 712.231 82.1703C709.453 83.1493 706.088 84.6643 704.754 85.5383C702.329 87.1283 702.329 87.1283 702.31 79.4233C702.299 75.1853 701.771 70.2563 701.135 68.4683C699.639 64.2603 701.09 64.1673 706.548 68.1223ZM266.34 67.2183C266 67.7683 265.299 68.2183 264.781 68.2183C264.263 68.2183 263.84 67.7683 263.84 67.2183C263.84 66.6683 264.542 66.2183 265.399 66.2183C266.256 66.2183 266.68 66.6683 266.34 67.2183ZM204.005 68.6653C211.999 70.3603 220.423 74.4083 231.622 81.9363C241.695 88.7083 241.995 90.3803 233.327 91.4453C230.034 91.8503 221.865 92.9023 215.173 93.7823C189.795 97.1213 170.84 92.3193 170.84 82.5513C170.84 70.6443 185.124 64.6643 204.005 68.6653ZM633.374 77.9683C633.398 85.5893 633.872 89.7623 635.005 92.3053C637.439 97.7733 636.246 98.8313 627.389 99.0603C618.652 99.2863 618.852 99.6343 621.954 89.5733C624.505 81.3013 631.638 67.2183 633.278 67.2183C633.312 67.2183 633.355 72.0553 633.374 77.9683ZM342.836 69.7133C345.365 72.7613 336.501 80.5053 325.869 84.5363C321.419 86.2233 321.387 86.2193 318.932 83.7653C317.046 81.8783 316.804 81.1983 317.903 80.8693C324.23 78.9753 329.213 76.5203 334.34 72.7713C341.257 67.7143 341.195 67.7363 342.836 69.7133ZM256.84 70.2183C256.84 70.7683 256.39 71.2183 255.84 71.2183C255.29 71.2183 254.84 70.7683 254.84 70.2183C254.84 69.6683 255.29 69.2183 255.84 69.2183C256.39 69.2183 256.84 69.6683 256.84 70.2183ZM279.805 71.8283C287.512 74.4383 287.512 74.4383 285.641 78.0783C284.612 80.0803 283.282 83.6313 282.686 85.9683C281.676 89.9293 281.37 90.2183 278.181 90.2183C271.783 90.2183 264.684 85.3663 259.892 77.7183C256.76 72.7183 256.76 72.7183 258.911 70.9683C262.119 68.3573 270.585 68.7063 279.805 71.8283ZM1262.57 71.8963C1264.64 72.8763 1267.32 75.4753 1269.02 78.1463C1273.8 85.6803 1273.74 86.6063 1268.07 91.7013C1265.33 94.1663 1262.34 97.7613 1261.42 99.6873C1259.49 103.757 1257.77 104.831 1250.02 106.824C1246.89 107.626 1243.57 108.517 1242.63 108.804C1237.51 110.369 1233.67 90.3493 1237.39 81.4503C1241.53 71.5433 1252.81 67.2633 1262.57 71.8963ZM665.352 84.2693C666.325 86.1663 668.408 89.5993 669.981 91.8983C674.636 98.7053 674.032 102.459 667.852 105.117C657.872 109.411 657.212 109.272 655.734 102.574C651.837 84.9173 657.152 62.3853 661.962 76.1723C662.853 78.7293 664.379 82.3723 665.352 84.2693ZM700.84 80.0303C700.84 87.5563 700.73 87.9233 697.83 90.0683C693.306 93.4123 691.654 89.0553 695.37 83.5793C696.732 81.5723 698.366 78.1953 699.001 76.0743C700.619 70.6753 700.84 71.1513 700.84 80.0303ZM259.261 80.4643C263.047 87.4943 262.452 88.8733 255.239 89.7743C243.429 91.2493 241.867 88.7393 249.409 80.4053C255.827 73.3133 255.408 73.3103 259.261 80.4643ZM348.509 79.8073C354.549 93.0003 354.407 100.227 348.174 96.8213C345.34 95.2723 345.34 95.2723 348.84 95.8773C351.461 96.3313 352.07 96.1923 351.266 95.3263C350.676 94.6913 347.544 93.7393 344.306 93.2133C338.765 92.3113 324.84 88.4053 324.84 87.7523C324.84 87.5873 327.269 86.2643 330.238 84.8123C333.207 83.3593 337.595 80.4003 339.988 78.2353C345.55 73.2063 345.482 73.1943 348.509 79.8073ZM291.091 83.9683C291.7 93.1393 292.064 92.4373 287.104 91.6443C283.1 91.0043 283.1 91.0043 284.403 86.8613C288.545 73.6963 290.358 72.9123 291.091 83.9683ZM1038.34 78.9773C1040.54 80.1093 1043.55 82.3143 1045.03 83.8763C1047.94 86.9403 1053.41 97.9843 1052.48 98.9113C1052.17 99.2213 1046.04 98.4953 1038.86 97.2973C1031.68 96.0983 1021.99 95.1183 1017.32 95.1183C1008.84 95.1183 1008.84 95.1183 1008.84 91.2933C1008.84 89.1893 1008.57 86.1353 1008.25 84.5063C1007.69 81.7333 1007.96 81.4123 1012.5 79.4833C1021.67 75.5773 1031.36 75.3873 1038.34 78.9773ZM312.047 83.7363C314.234 85.1833 315.726 86.6653 315.363 87.0283C314.742 87.6493 302.469 91.2693 302.259 90.8933C299.498 85.9483 295.84 78.6763 295.84 78.1323C295.84 76.8363 307.944 81.0213 312.047 83.7363ZM300.192 91.4583C299.933 91.8763 298.455 92.2183 296.906 92.2183C293.778 92.2183 292.837 89.8153 292.843 81.8433C292.846 77.7183 292.846 77.7183 296.754 84.2083C298.903 87.7783 300.45 91.0403 300.192 91.4583ZM652.53 83.5693C651.801 87.5863 651.954 91.2563 653.14 98.2953C654.01 103.451 654.553 107.838 654.348 108.043C652.65 109.741 638.84 98.8763 638.84 95.8423C638.84 94.5723 651.9 78.2283 652.92 78.2213C653.239 78.2203 653.063 80.6263 652.53 83.5693ZM315.507 82.8843C314.728 83.6633 311.874 81.9733 312.435 81.0653C312.783 80.5023 313.598 80.6023 314.453 81.3123C315.243 81.9673 315.717 82.6743 315.507 82.8843ZM943.744 83.7733C948.17 86.7023 952.84 92.2453 952.84 94.5703C952.84 97.5253 937.696 104.218 931.008 104.218C924.232 104.218 919.395 89.7013 924.34 84.2053C928.667 79.3953 936.853 79.2133 943.744 83.7733ZM690.879 86.3373C692.239 90.4563 692.239 90.4563 688.078 94.3373C685.79 96.4723 683 98.2183 681.879 98.2183C679.202 98.2183 679.246 98.0333 683.354 92.0613C685.287 89.2513 687.136 85.8873 687.463 84.5853C688.326 81.1473 689.338 81.6663 690.879 86.3373ZM720.65 90.4683C722.558 104.606 723.237 118.218 722.034 118.218C720.057 118.218 709.02 129.236 706.214 134.011C702.572 140.209 702.315 147.657 705.59 152.091C708.457 155.973 708.538 155.722 703.82 157.609C698.274 159.828 688.399 159.655 683.09 157.245C677.764 154.827 677.702 155.167 684.738 148.239C697.346 135.825 701.853 115.389 696.32 95.7183C695.422 92.5273 711.442 82.5753 717.938 82.2883C719.195 82.2333 719.775 83.9843 720.65 90.4683ZM734.166 85.1043C739.979 87.4123 753.84 98.6863 753.84 101.106C753.84 101.595 752.276 102.289 750.364 102.648C748.452 103.006 744.441 104.587 741.451 106.16C736.014 109.02 736.014 109.02 733.454 100.81C732.046 96.2953 729.54 90.6023 727.885 88.1593C726.23 85.7163 724.868 83.4283 724.858 83.0733C724.837 82.3293 730.033 83.4633 734.166 85.1043ZM729.107 94.2133C730.923 98.2083 733.796 107.485 733.828 109.455C733.842 110.303 726.319 115.218 725.007 115.218C724.527 115.218 723.853 109.93 723.51 103.468C723.166 97.0063 722.598 89.6933 722.247 87.2183C721.608 82.7183 721.608 82.7183 724.336 86.2183C725.836 88.1433 727.983 91.7413 729.107 94.2133ZM1006.82 90.9993C1006.84 95.1593 1006.47 96.3993 1005.09 96.8373C1004.13 97.1443 1001.13 98.2593 998.433 99.3163C995.734 100.373 993.384 101.095 993.21 100.922C991.932 99.6433 995.757 92.2603 999.952 87.9083C1005.73 81.9173 1006.8 82.4003 1006.82 90.9993ZM318.84 86.2183C318.84 86.7683 318.39 87.2183 317.84 87.2183C317.29 87.2183 316.84 86.7683 316.84 86.2183C316.84 85.6683 317.29 85.2183 317.84 85.2183C318.39 85.2183 318.84 85.6683 318.84 86.2183ZM1291.53 86.2823C1296.38 88.1163 1304.21 97.1833 1302.45 98.9383C1302.16 99.2323 1298.51 98.9653 1294.34 98.3453C1290.17 97.7253 1284.19 97.2183 1281.05 97.2183C1275.34 97.2183 1275.34 97.2183 1275.34 92.7253C1275.34 88.5353 1275.57 88.1353 1278.84 86.7773C1283.05 85.0243 1287.71 84.8423 1291.53 86.2823ZM266.92 87.8143C268.076 89.2083 267.943 89.3663 265.87 89.0643C264.565 88.8743 263.311 88.1563 263.085 87.4683C262.492 85.6693 265.354 85.9273 266.92 87.8143ZM323.399 89.6863C324.466 90.4943 326.465 91.1873 327.84 91.2263C330.34 91.2983 330.34 91.2983 327.59 92.7903C326.027 93.6383 324.84 95.1313 324.84 96.2503C324.84 99.4253 323.035 98.5213 320.86 94.2583C317.775 88.2103 318.861 86.2543 323.399 89.6863ZM1478.47 90.7233C1481.24 92.1013 1484.53 94.3213 1485.78 95.6573C1488.06 98.0853 1488.06 98.0853 1484.7 98.6613C1478.7 99.6893 1462.36 102.21 1461.67 102.214C1461.3 102.216 1460.5 100.708 1459.89 98.8623C1456.75 89.3573 1466.85 84.9333 1478.47 90.7233ZM243.84 90.2183C243.84 90.7683 243.165 91.2183 242.34 91.2183C241.515 91.2183 240.84 90.7683 240.84 90.2183C240.84 89.6683 241.515 89.2183 242.34 89.2183C243.165 89.2183 243.84 89.6683 243.84 90.2183ZM318.421 93.3743C320.411 97.2243 320.577 97.1363 312.55 96.4873C302.848 95.7023 301.428 93.0433 309.61 90.9783C316.218 89.3113 316.336 89.3433 318.421 93.3743ZM1231.09 94.2693C1236.23 99.8383 1233.09 105.985 1224.61 106.94C1219.59 107.506 1218.04 106.272 1217.21 101.057C1215.66 91.3213 1224.42 87.0383 1231.09 94.2693ZM1273.82 92.9683C1273.8 96.8613 1272.84 97.9523 1267.92 99.6893C1261.14 102.081 1261.04 101.256 1267.3 94.8103C1272.45 89.5173 1273.85 89.1223 1273.82 92.9683ZM259.674 96.4633C259.149 98.7983 259.014 102.846 259.373 105.459C260.209 111.537 259.039 112.056 250.654 109.329C247.181 108.2 242.54 106.813 240.34 106.247C234.962 104.864 232.115 102.985 236.745 103.875C239.197 104.347 239.951 104.206 239.436 103.374C239.043 102.738 237.924 102.218 236.948 102.218C233.95 102.218 233.854 101.153 236.493 97.1663C239.391 92.7873 240.186 92.5403 251.984 92.3543C260.627 92.2183 260.627 92.2183 259.674 96.4633ZM272.497 92.7993C277.642 93.8283 280.301 96.5063 278.71 99.0553C277.967 100.245 276.88 101.218 276.294 101.218C275.708 101.218 272.554 102.968 269.284 105.106C266.015 107.245 263.002 108.793 262.59 108.547C261.662 107.994 261.587 93.8043 262.507 92.8853C263.328 92.0633 268.591 92.0183 272.497 92.7993ZM280.84 93.2183C280.84 93.7683 280.417 94.2183 279.899 94.2183C279.381 94.2183 278.68 93.7683 278.34 93.2183C278 92.6683 278.424 92.2183 279.281 92.2183C280.138 92.2183 280.84 92.6683 280.84 93.2183ZM696.173 105.983C697.612 115.757 695.904 127.581 691.863 135.807C689.077 141.481 679.345 152.218 676.989 152.218C674.238 152.218 662.84 132.552 662.84 127.807C662.84 126.917 664.808 123.774 667.212 120.822C670.84 116.368 673.747 110.59 675.347 104.656C675.504 104.072 678.605 102.131 682.237 100.343C685.87 98.5553 689.629 96.0243 690.591 94.7203C692.34 92.3483 692.34 92.3483 693.721 95.5333C694.481 97.2853 695.584 101.987 696.173 105.983ZM235.302 95.9683C231.168 102.396 232.252 102.052 222.34 100.083C217.39 99.1003 212.328 98.2783 211.09 98.2573C207.385 98.1933 208.547 96.4433 212.767 95.7303C218.223 94.8093 229.668 93.5073 233.705 93.3493C237.07 93.2183 237.07 93.2183 235.302 95.9683ZM294.583 94.4563C295.82 94.4423 296.551 94.8763 296.212 95.4243C295.449 96.6593 284.753 95.4783 283.34 94.0033C282.647 93.2793 283.874 93.1923 287.34 93.7203C290.09 94.1383 293.35 94.4693 294.583 94.4563ZM302.611 95.0313C302.832 95.6943 302.087 96.2183 300.923 96.2183C297.314 96.2183 298.555 99.5243 304.449 105.609C310.673 112.035 310.638 112.233 302.84 114.741C299.815 115.713 296.778 116.717 296.09 116.971C295.148 117.318 294.84 115.19 294.84 108.325C294.84 103.316 295.26 99.2183 295.773 99.2183C296.286 99.2183 297.021 98.2063 297.407 96.9683C298.532 93.3633 301.666 92.1963 302.611 95.0313ZM342.403 96.4653C349.511 98.9463 350.153 99.6723 346.129 100.682C341.528 101.836 326.84 99.2033 326.84 97.2243C326.84 93.4193 332.839 93.1273 342.403 96.4653ZM1506.49 97.7793C1509.87 101.162 1509.11 101.623 1502.42 100.234C1496.61 99.0283 1495.63 98.0223 1498.59 96.2983C1501.45 94.6303 1503.78 95.0663 1506.49 97.7793ZM287.274 97.1163C289.997 98.1823 287.478 99.5953 284.283 98.7933C282.889 98.4433 281.84 98.6183 281.84 99.1993C281.84 99.7593 281.386 100.218 280.832 100.218C280.234 100.218 280.332 99.4043 281.072 98.2183C282.376 96.1313 284.015 95.8403 287.274 97.1163ZM1040.66 99.6043C1054.14 102.044 1055.04 103.233 1050.83 113.03C1046.34 123.46 1038.65 127.721 1024.34 127.711C1012.87 127.704 1007.95 126.026 1000.99 119.734C996.884 116.025 996.884 116.025 1000.81 111.371C1002.97 108.812 1005.66 104.608 1006.8 102.03C1009.69 95.5073 1015.65 95.0793 1040.66 99.6043ZM677.27 100.331C676.261 101.964 674.84 101.241 674.84 99.0963C674.84 97.3293 675.09 97.1803 676.329 98.2093C677.148 98.8893 677.571 99.8443 677.27 100.331ZM956.863 101.263C957.998 103.488 960.53 107.083 962.491 109.253C966.934 114.172 966.142 114.62 954.037 114.042C946.75 113.693 944.15 113.077 938.323 110.314C930.611 106.658 930.466 107.002 941.12 103.677C944.299 102.684 948.349 100.847 950.12 99.5943C954.395 96.5703 954.479 96.5913 956.863 101.263ZM308.672 103.844C314.489 111.695 313.846 112.834 307.473 105.968C304.538 102.805 301.62 100.218 300.988 100.218C300.357 100.218 299.84 99.7683 299.84 99.2183C299.84 96.0163 304.795 98.6113 308.672 103.844ZM321.34 103.386C321.34 108.754 323.435 108.383 324.122 102.894C324.422 100.503 324.56 100.876 324.68 104.401C324.832 108.85 322.241 111.952 320.133 109.844C319.827 109.539 318.752 109.73 317.743 110.27C316.263 111.062 315.573 110.717 314.172 108.485C313.218 106.963 311.123 104.01 309.518 101.922C306.599 98.1263 306.599 98.1263 313.969 98.4223C321.34 98.7183 321.34 98.7183 321.34 103.386ZM638.34 99.2183C638.68 99.7683 638.481 100.218 637.899 100.218C637.317 100.218 636.84 99.7683 636.84 99.2183C636.84 98.6683 637.038 98.2183 637.281 98.2183C637.524 98.2183 638 98.6683 638.34 99.2183ZM212.083 100.375C211.238 101.22 210.037 101.247 207.633 100.477C204.34 99.4223 204.34 99.4223 208.79 99.3203C212.159 99.2433 212.959 99.4993 212.083 100.375ZM292.628 108.468C292.344 117.591 292.306 117.718 289.84 117.718C287.456 117.718 287.314 117.383 286.777 110.489C286.468 106.513 285.895 102.939 285.504 102.548C285.113 102.157 286.041 101.285 287.566 100.609C292.819 98.2823 292.938 98.4683 292.628 108.468ZM1005.84 99.9683C1005.82 102.334 997.492 113.218 995.693 113.218C994.384 113.218 992.403 105.255 993.452 104.206C996.354 101.304 1005.85 98.0563 1005.84 99.9683ZM1294.52 100.293C1304.14 101.616 1304.31 101.78 1302.91 108.319C1299.34 124.958 1277.79 130.538 1265.98 117.88C1263.61 115.347 1263.61 115.347 1267.61 110.532C1269.82 107.884 1272.35 104.256 1273.25 102.468C1275.15 98.7053 1279.63 98.2473 1294.52 100.293ZM339.469 102.514C339.983 103.028 329.291 108.218 327.719 108.218C327.236 108.218 326.84 106.501 326.84 104.402C326.84 100.585 326.84 100.585 332.905 101.3C336.241 101.694 339.195 102.24 339.469 102.514ZM355.019 101.523C355.745 102.241 359.616 104.593 363.62 106.75C377.061 113.99 380.585 121.673 373.646 128.612C369.312 132.946 363.101 134.485 361.567 131.604C361.015 130.567 358.238 127.431 355.396 124.636C350.229 119.554 350.229 119.554 352.164 115.825C355.5 109.396 355.636 103.456 352.464 102.66C351.021 102.298 349.84 101.6 349.84 101.11C349.84 99.7523 353.523 100.046 355.019 101.523ZM633.178 101.718C633.089 102.268 632.301 106.187 631.428 110.426C630.555 114.665 629.84 121.753 629.84 126.176C629.84 134.783 629.38 135.487 626.063 131.956C621.594 127.199 619.434 120.335 619.386 110.737C619.34 101.756 619.34 101.756 622.34 101.082C626.582 100.13 633.371 100.528 633.178 101.718ZM1271.84 100.995C1271.84 102.914 1264.22 112.218 1262.65 112.218C1262.21 112.218 1261.84 110.4 1261.84 108.177C1261.84 104.386 1262.1 104.019 1266.09 102.248C1270.93 100.099 1271.84 99.9003 1271.84 100.995ZM1490.82 104.257C1486 113.709 1473.88 114.966 1465.09 106.927C1461.94 104.049 1462.27 103.23 1466.59 103.139C1468.65 103.096 1473.49 102.464 1477.34 101.735C1481.19 101.006 1486.26 100.367 1488.61 100.314C1492.88 100.218 1492.88 100.218 1490.82 104.257ZM220.84 102.218C220.84 102.768 220.642 103.218 220.399 103.218C220.156 103.218 219.68 102.768 219.34 102.218C219 101.668 219.199 101.218 219.781 101.218C220.363 101.218 220.84 101.668 220.84 102.218ZM284.773 110.836C285.707 120.086 286.152 119.392 277.541 122.121C269.506 124.668 269.626 124.719 265.814 117.167C262.833 111.262 262.833 111.262 267.087 109.109C269.426 107.925 272.596 106.072 274.131 104.99C277.516 102.605 282.041 101.216 283.158 102.22C283.608 102.624 284.335 106.501 284.773 110.836ZM618.823 122.718C620.485 127.738 624.464 134.136 626.383 134.873C628.826 135.81 628.009 137.218 625.022 137.218C611.543 137.218 601.49 126.571 599.999 110.718C599.34 103.718 599.34 103.718 607.84 102.718C616.34 101.718 616.34 101.718 616.92 110.218C617.239 114.893 618.095 120.518 618.823 122.718ZM645.57 105.819C648.744 107.733 652.283 109.536 653.436 109.828C655.026 110.23 656.1 112.171 657.89 117.879C660.249 125.401 660.249 125.401 657.795 127.31C651.873 131.916 635.621 137.437 632.912 135.763C630.232 134.106 631.498 112.508 634.781 103.872C636.047 100.544 637.154 100.744 645.57 105.819ZM1503.79 102.301C1509.73 103.574 1510.63 106.518 1506.39 110.763C1502.46 114.684 1499.05 113.52 1495.8 107.15C1492.69 101.046 1494.06 100.214 1503.79 102.301ZM217.814 102.968C217.8 103.381 216.046 104.52 213.917 105.501C205.474 109.39 197.088 119.113 194.692 127.791C193.472 132.211 192.099 131.318 190.727 125.211C189.404 119.323 191.82 111.353 196.496 106.177C200.073 102.218 200.073 102.218 208.956 102.218C213.842 102.218 217.828 102.555 217.814 102.968ZM226.691 104.316C228.423 104.92 229.834 105.482 229.827 105.566C229.82 105.65 228.92 108.571 227.827 112.057C226.734 115.544 225.84 120.606 225.84 123.307C225.84 126.008 225.453 128.218 224.979 128.218C224.505 128.218 223.054 130.223 221.754 132.674C219.528 136.871 219.089 137.168 214.219 137.776C205.06 138.921 195.84 135.891 195.84 131.737C195.84 122.396 206.185 110.284 218.389 105.335C221.112 104.23 223.385 103.303 223.441 103.273C223.496 103.243 224.959 103.712 226.691 104.316ZM351.258 103.825C353.262 104.594 353.253 106.649 351.22 112.617C349.502 117.659 347.674 119.155 345.469 117.325C344.729 116.711 340.609 115.31 336.313 114.211C325.298 111.394 325.317 111.735 335.893 106.814C343.056 103.48 347.903 102.538 351.258 103.825ZM760.066 109.169C773.385 130.477 771.138 159.234 756.156 159.214C746.18 159.201 740.094 147.29 737.425 122.553C736.029 109.618 736.384 109.068 748.676 105.137C756.388 102.671 755.894 102.496 760.066 109.169ZM1238.39 110.132C1238.12 110.568 1239.01 111.432 1240.37 112.05C1245.58 114.424 1241.11 117.048 1234.08 115.743C1226.92 114.411 1219.84 109.218 1225.19 109.218C1226.48 109.218 1229.3 107.942 1231.44 106.383C1235.34 103.549 1235.34 103.549 1237.11 106.443C1238.09 108.036 1238.66 109.695 1238.39 110.132ZM672.818 106.468C672.753 110.198 664.285 123.218 661.925 123.218C661.536 123.218 660.619 120.855 659.887 117.968C659.154 115.081 658.376 112.232 658.156 111.639C657.937 111.045 659.688 109.984 662.049 109.281C664.409 108.578 667.465 107.394 668.84 106.65C672.001 104.94 672.846 104.902 672.818 106.468ZM993.905 113.796C997.329 117.923 982.874 120.653 975.312 117.309C969.869 114.901 970.062 114.445 977.84 111.321C980.865 110.106 984.915 108.275 986.84 107.253C990.34 105.395 990.34 105.395 991.588 108.951C992.274 110.907 993.317 113.088 993.905 113.796ZM237.915 107.744C247.82 111.239 248.576 115.643 240.051 120.186C236.866 121.884 233.061 124.385 231.594 125.745C230.127 127.105 228.683 128.218 228.384 128.218C226.685 128.218 229.207 110.669 231.42 107.088C232.153 105.902 232.91 105.979 237.915 107.744ZM1260.11 109.968C1260.7 114.538 1259.01 116.218 1253.82 116.218C1248.46 116.218 1248.34 115.309 1253.03 110.529C1258.21 105.245 1259.48 105.144 1260.11 109.968ZM276.871 108.718C276.871 109.268 277.307 110.393 277.84 111.218C278.373 112.043 278.809 112.268 278.809 111.718C278.809 111.168 278.373 110.043 277.84 109.218C277.307 108.393 276.871 108.168 276.871 108.718ZM280.101 111.718C281.455 116.127 283.031 116.37 281.77 111.975C281.259 110.191 280.84 108.616 280.84 108.475C280.84 108.333 280.432 108.218 279.934 108.218C279.424 108.218 279.497 109.749 280.101 111.718ZM1249.9 111.241C1246.64 114.028 1246.36 114.094 1244.59 112.488C1242.78 110.856 1242.85 110.75 1246.53 109.611C1252.73 107.688 1253.57 108.098 1249.9 111.241ZM253.521 112.218C253.761 112.218 253.679 112.669 253.338 113.221C252.672 114.299 250.786 113.525 247.34 110.759C245.496 109.28 245.643 109.274 249.212 110.686C251.342 111.529 253.281 112.218 253.521 112.218ZM270.84 109.611C270.84 109.827 271.538 110.272 272.392 110.6C273.282 110.941 273.683 110.773 273.333 110.207C272.746 109.256 270.84 108.801 270.84 109.611ZM261.84 113.357C261.84 113.984 263.186 116.684 264.831 119.357C268.337 125.056 267.919 125.415 262.952 120.968C260.956 119.18 258.201 116.971 256.831 116.058C254.34 114.398 254.34 114.398 256.84 113.372C260.205 111.99 261.84 111.985 261.84 113.357ZM324.465 113.983C325.619 114.737 324.836 123.695 323.275 127.604C322.722 128.989 322.897 129.366 323.931 129.022C325.481 128.506 326.539 124.717 326.722 119.027C326.875 114.243 327.485 113.974 334.215 115.727C348.736 119.51 349.016 120.264 338.511 127.279C333.145 130.862 331.825 131.314 327.382 131.09C322.34 130.836 322.34 130.836 319.79 122.777C317.553 115.71 317.43 114.634 318.79 114.038C320.889 113.118 323.107 113.096 324.465 113.983ZM249.131 116.468C247.82 117.901 246.823 120.807 246.385 124.467C245.808 129.282 245.342 130.291 243.518 130.678C242.32 130.932 238.64 131.656 235.34 132.286C232.04 132.917 227.808 134.066 225.936 134.839C221.643 136.612 221.457 136.377 223.928 132.313C225.825 129.195 226.049 129.098 227.764 130.649C229.466 132.19 229.62 132.167 230.107 130.305C230.394 129.208 233.489 126.508 236.984 124.304C246.579 118.254 247.84 117.252 247.84 115.671C247.84 114.872 248.593 114.218 249.514 114.218C250.966 114.218 250.915 114.517 249.131 116.468ZM312.5 115.775C312.829 116.632 313.641 117.124 314.305 116.87C315.388 116.454 317.231 120.519 319.338 127.968C320.167 130.898 318.083 130.919 305.666 128.104C294.619 125.601 294.612 125.596 296.315 121.584C297.388 119.057 298.78 118.054 303.493 116.413C310.73 113.892 311.75 113.82 312.5 115.775ZM259.383 120.25C262.384 122.467 264.84 124.661 264.84 125.126C264.84 126.411 248.924 130.163 248.231 129.041C246.703 126.57 250.478 116.218 252.906 116.218C253.467 116.218 256.381 118.032 259.383 120.25ZM294.454 120.747C293.613 121.588 293.199 122.99 293.534 123.862C294.027 125.148 293.688 125.307 291.741 124.699C287.364 123.331 287.162 120.936 291.34 119.931C295.412 118.952 296.076 119.125 294.454 120.747ZM721.447 125.968C719.869 139.902 712.268 155.052 708.186 152.398C701.608 148.122 704.743 135.946 714.954 126.108C722.422 118.913 722.246 118.917 721.447 125.968ZM286.409 123.537C286.876 124.754 277.429 135.218 275.865 135.218C275.485 135.218 273.728 133.418 271.96 131.218C270.192 129.018 269.04 127.218 269.399 127.218C269.758 127.218 270.956 128.367 272.06 129.771C274.614 133.018 275.673 132.139 273.396 128.662C271.349 125.538 271.121 125.811 277.34 123.935C283.767 121.996 285.784 121.907 286.409 123.537ZM355.261 126.797C362.325 133.861 361.762 134.626 350.09 133.814C344.727 133.442 338.819 132.869 336.96 132.542C333.58 131.947 333.58 131.947 336.46 130.708C338.044 130.026 341.365 127.861 343.84 125.895C349.593 121.326 349.807 121.343 355.261 126.797ZM292.483 131.589C292.657 137.497 290.193 136.169 289.159 129.797C288.617 126.459 288.768 126.057 290.443 126.38C291.969 126.673 292.368 127.692 292.483 131.589ZM269.229 130.661C271.855 134.104 271.855 134.104 269.795 139.608C267.675 145.275 257.747 155.897 255.734 154.653C252.698 152.776 246.702 134.122 248.523 132.218C248.9 131.825 263.18 127.824 265.971 127.33C266.319 127.268 267.784 128.767 269.229 130.661ZM307.647 130.575C319.917 133.063 320.848 134.225 316.572 141.718C313.711 146.732 310.747 147.237 304.172 143.833C294.991 139.079 293.55 137.334 294.358 131.947C294.746 129.357 295.489 127.501 296.009 127.822C296.528 128.143 301.765 129.382 307.647 130.575ZM663.86 135.568C665.648 139.886 668.624 145.668 670.475 148.419C674.574 154.51 674.694 153.765 669.397 155.099C656.055 158.459 639.924 152.016 634.261 141.066C632.844 138.325 632.857 138.306 636.588 137.681C643.106 136.588 649.342 134.272 654.93 130.867C657.905 129.054 660.401 127.604 660.475 127.645C660.55 127.685 662.073 131.251 663.86 135.568ZM287.356 131.29C288.186 135.069 288.019 135.22 284.602 133.781C282.015 132.691 281.949 132.507 283.409 130.423C285.511 127.422 286.557 127.652 287.356 131.29ZM247.049 138.51C247.439 141.605 248.686 145.955 249.819 148.177C252.401 153.238 251.212 153.395 243.837 148.968C238.593 145.821 231.84 138.397 231.84 135.78C231.84 134.624 242.551 132.179 245.34 132.697C245.89 132.799 246.659 135.415 247.049 138.51ZM323.84 133.218C325.133 134.053 325.106 134.189 323.649 134.203C322.719 134.211 321.68 133.768 321.34 133.218C320.558 131.952 321.882 131.952 323.84 133.218ZM356.073 135.718C363.102 135.718 364.362 137.724 364.301 148.819C364.231 161.423 356.274 173.503 344.351 179.108C336.962 182.581 320.183 184.404 326.105 181.089C328.763 179.602 331.731 172.994 332.436 166.997C333.417 158.649 330.611 148.248 324.085 136.045C323.384 134.735 328.475 134.405 339.34 135.058C345.39 135.421 352.92 135.718 356.073 135.718ZM236.152 144.89C239.452 148.423 243.019 150.949 247.411 152.862C250.947 154.403 253.84 156.038 253.84 156.496C253.84 159.574 233.096 164.783 225.651 163.575C217.186 162.201 216.36 140.283 224.649 136.969C228.139 135.573 228.421 135.608 229.831 137.605C230.651 138.767 233.496 142.045 236.152 144.89ZM280.328 147.718C284.165 155.37 287.74 167.652 286.492 168.899C286.06 169.331 283.149 169.669 280.023 169.65C272.81 169.606 266.68 166.873 261.006 161.171C256.673 156.815 256.673 156.815 259.506 154.844C263.485 152.077 273.118 141.811 272.065 141.46C271.586 141.3 271.403 139.744 271.658 138.002C272.123 134.835 272.123 134.835 274.47 137.777C275.761 139.394 278.397 143.868 280.328 147.718ZM287.149 136.313C289.374 137.327 289.599 138.128 290.192 147.176C290.544 152.548 291.527 158.914 292.377 161.322C293.428 164.301 293.525 165.303 292.68 164.458C290.808 162.586 289.626 162.969 290.34 165.218C290.699 166.35 290.52 167.218 289.926 167.218C289.35 167.218 288.605 165.98 288.27 164.468C286.774 157.698 284.339 151.188 280.827 144.571C278.062 139.361 277.333 137.125 278.137 136.321C279.549 134.909 284.058 134.905 287.149 136.313ZM199.936 137.94C202.308 139.14 205.663 139.649 210.998 139.618C218.657 139.573 218.657 139.573 217.998 143.146C217.127 147.872 217.219 153.852 218.234 158.454C219.057 162.19 219.057 162.19 216.178 161.186C208.164 158.392 198.439 147.441 196.448 138.968C195.685 135.721 195.6 135.746 199.936 137.94ZM320.84 137.527C320.84 138.247 320.179 139.709 319.37 140.777C318.041 142.532 318.014 142.406 319.089 139.468C320.367 135.975 320.84 135.451 320.84 137.527ZM307.824 147.212C312.733 148.874 312.733 148.874 308.392 153.837C303.69 159.212 296.193 164.904 295.167 163.879C294.039 162.75 291.915 149.891 291.877 143.958C291.84 138.198 291.84 138.198 297.377 141.874C300.423 143.896 305.124 146.298 307.824 147.212ZM327.966 148.009C332.406 159.33 330.937 174.203 324.835 179.72C319.247 184.773 304.449 180.094 298.374 171.353C295.34 166.989 295.34 166.989 297.84 165.404C300.072 163.989 309.207 155.011 316.887 146.687C318.425 145.02 320.262 142.386 320.969 140.834C322.255 138.012 322.255 138.012 323.991 140.156C324.946 141.335 326.735 144.869 327.966 148.009ZM269.108 169.253C271.918 170.529 275.608 171.181 280.09 171.196C283.802 171.208 286.84 171.457 286.84 171.75C286.84 173.754 283.206 180.274 280.539 183.053C267.505 196.641 243.21 191.543 227.742 171.974C222.591 165.458 222.697 165.218 230.735 165.218C237.505 165.218 247.546 162.75 252.829 159.788C255.184 158.467 255.577 158.633 260.097 162.862C262.726 165.32 266.781 168.196 269.108 169.253Z" fill="black"/>
</g>
<defs>
<clipPath id="clip0_8_13">
<rect width="259" height="192.01" fill="white"/>
</clipPath>
</defs>
</svg>
